<svg xmlns="http://www.w3.org/2000/svg" viewBox="0 0 900 2015" role="img" aria-labelledby="title desc">
  <title id="title">Angu Hari Karthick M | terminal profile</title>
  <desc id="desc">Terminal-style profile for Angu Hari Karthick M with configured focus areas, interests, languages, tools, projects, brand, and social links.</desc>
  <style>
    .bg { fill: #0D1117; } .border { fill: none; stroke: #234634; }
    .bar { fill: #0d1c14; } .dot-red { fill: #ff6b6b; } .dot-yellow { fill: #ffd166; }
    .dot-green { fill: #4ade80; } .muted { fill: #8ba596; font: 12px ui-monospace, Menlo, monospace; }
    text { font-family: ui-monospace, SFMono-Regular, Menlo, monospace; font-size: 14px; }
    .label { fill: #69F0A0; } .value { fill: #C9D1D9; }
    .link { fill: #69F0A0; font: 14px ui-monospace, Menlo, monospace; }
  </style>
  <rect class="bg" width="100%" height="100%" rx="12"/>
  <rect class="border" x=".5" y=".5" width="899" height="2014" rx="12"/>
  <path class="bar" d="M12 1h876a11 11 0 0 1 11 11v32H1V12A11 11 0 0 1 12 1Z"/>
  <circle class="dot-red" cx="21" cy="17" r="4"/><circle class="dot-yellow" cx="36" cy="17" r="4"/>
  <circle class="dot-green" cx="51" cy="17" r="4"/>
  <text class="muted" x="70" y="21">GENZLOG / profile.json</text>
  <text class="label" x="30" y="78">$ whoami</text><text class="value" x="48" y="101">AHK / Angu Hari Karthick M</text><text class="label" x="30" y="124">$ role</text><text class="value" x="48" y="147">Software Developer | AI Explorer</text><text class="label" x="30" y="170">$ bio</text><text class="value" x="48" y="193">Second-year undergraduate student passionate about software development, artificial</text><text class="value" x="48" y="216">intelligence, and building creative digital experiences.</text><text class="label" x="30" y="239">$ focus</text><text class="value" x="48" y="262">Software Development</text><text class="value" x="48" y="285">Artificial Intelligence</text><text class="value" x="48" y="308">Web Development</text><text class="value" x="48" y="331">Creative Technology</text><text class="value" x="48" y="354">Gaming and Esports</text><text class="label" x="30" y="377">$ currently-building</text><text class="value" x="48" y="400">Personal software projects</text><text class="value" x="48" y="423">GENZLOG - Creative Technology Brand</text><text class="label" x="30" y="446">$ career-interests</text><text class="value" x="48" y="469">Software Engineering</text><text class="value" x="48" y="492">AI Engineering</text><text class="value" x="48" y="515">AI-Assisted Development</text><text class="value" x="48" y="538">Web Application Development</text><text class="label" x="30" y="561">$ languages</text><text class="value" x="48" y="584">Python</text><text class="value" x="48" y="607">JavaScript</text><text class="value" x="48" y="630">HTML</text><text class="value" x="48" y="653">CSS</text><text class="value" x="48" y="676">TypeScript</text><text class="label" x="30" y="699">$ tools</text><text class="value" x="48" y="722">Git</text><text class="value" x="48" y="745">GitHub</text><text class="value" x="48" y="768">GitHub Actions</text><text class="value" x="48" y="791">Visual Studio Code</text><text class="label" x="30" y="814">$ location</text><text class="value" x="48" y="837">India</text><text class="label" x="30" y="860">$ brand / GENZLOG</text><text class="value" x="48" y="883">The Digital Log of Gen Z</text><text class="label" x="30" y="906">$ brand-interests</text><text class="value" x="48" y="929">Software</text><text class="value" x="48" y="952">AI</text><text class="value" x="48" y="975">Gaming and Esports</text><text class="value" x="48" y="998">Creative Products</text><text class="label" x="30" y="1021">$ projects</text><a class="link" href="https://github.com/Anguharikarthick17/EcoRoute"><text x="48" y="1044">EcoRoute</text></a><text class="value" x="48" y="1067">A software project focused on eco-friendly routing.</text><a class="link" href="https://github.com/Anguharikarthick17/AudienceIQ"><text x="48" y="1090">AudienceIQ</text></a><text class="value" x="48" y="1113">A project exploring audience intelligence.</text><a class="link" href="https://github.com/Anguharikarthick17/BlackBox---Ai"><text x="48" y="1136">BlackBox---Ai</text></a><text class="value" x="48" y="1159">An AI-related software project.</text><a class="link" href="https://github.com/Anguharikarthick17/CHESS-GAME"><text x="48" y="1182">CHESS-GAME</text></a><text class="value" x="48" y="1205">A chess game project.</text><a class="link" href="https://github.com/Anguharikarthick17/AHK-MINI"><text x="48" y="1228">AHK-MINI</text></a><text class="value" x="48" y="1251">A personal software project.</text><a class="link" href="https://github.com/Anguharikarthick17/AHK-DYNAMIC-ISLAND"><text x="48" y="1274">AHK-DYNAMIC-ISLAND</text></a><text class="value" x="48" y="1297">A personal interface project.</text><a class="link" href="https://github.com/Anguharikarthick17/AHK-RESUME"><text x="48" y="1320">AHK-RESUME</text></a><text class="value" x="48" y="1343">A resume-related project.</text><a class="link" href="https://github.com/Anguharikarthick17/MAIN-PORTFOLIO"><text x="48" y="1366">MAIN-PORTFOLIO</text></a><text class="value" x="48" y="1389">A portfolio project.</text><a class="link" href="https://github.com/Anguharikarthick17/AHK-KEYCHAIN"><text x="48" y="1412">AHK-KEYCHAIN</text></a><text class="value" x="48" y="1435">A keychain project.</text><a class="link" href="https://github.com/Anguharikarthick17/DATA-SENTINEL"><text x="48" y="1458">DATA-SENTINEL</text></a><text class="value" x="48" y="1481">A data sentinel project.</text><a class="link" href="https://github.com/Anguharikarthick17/RESUMEFIT"><text x="48" y="1504">RESUMEFIT</text></a><text class="value" x="48" y="1527">A resume-fit project.</text><a class="link" href="https://github.com/Anguharikarthick17/UNIGUARD-AI"><text x="48" y="1550">UNIGUARD-AI</text></a><text class="value" x="48" y="1573">A UniGuard AI project.</text><a class="link" href="https://github.com/Anguharikarthick17/Word-Build"><text x="48" y="1596">Word-Build</text></a><text class="value" x="48" y="1619">A word-building project.</text><a class="link" href="https://github.com/Anguharikarthick17/Portfolio-Sample"><text x="48" y="1642">Portfolio-Sample</text></a><text class="value" x="48" y="1665">A sample portfolio project.</text><a class="link" href="https://github.com/Anguharikarthick17/Dodge-Game"><text x="48" y="1688">Dodge-Game</text></a><text class="value" x="48" y="1711">A dodge game project.</text><a class="link" href="https://github.com/Anguharikarthick17/Road-Safety"><text x="48" y="1734">Road-Safety</text></a><text class="value" x="48" y="1757">A road safety project.</text><a class="link" href="https://github.com/Anguharikarthick17/AI-AGRI-PROJECT"><text x="48" y="1780">AI-AGRI-PROJECT</text></a><text class="value" x="48" y="1803">An AI agriculture project.</text><a class="link" href="https://github.com/Anguharikarthick17/FIXNOW-PORTEL---VIT"><text x="48" y="1826">FIXNOW-PORTEL---VIT</text></a><text class="value" x="48" y="1849">A FixNow portal project.</text><a class="link" href="https://github.com/Anguharikarthick17/Love-Calculator"><text x="48" y="1872">Love-Calculator</text></a><text class="value" x="48" y="1895">A love calculator project.</text><a class="link" href="https://github.com/Anguharikarthick17"><text x="48" y="1918">github</text></a><a class="link" href="https://www.linkedin.com/in/angu-hari-karthick-m-175753374"><text x="48" y="1941">linkedin</text></a><a class="link" href="https://www.instagram.com/angu.hk/"><text x="48" y="1964">instagram</text></a>
</svg>
